<?xml version="1.0" encoding="utf-8"?>
<!-- Generator: Adobe Illustrator 23.0.3, SVG Export Plug-In . SVG Version: 6.00 Build 0)  -->
<svg version="1.1" id="レイヤー_1" xmlns="http://www.w3.org/2000/svg" xmlns:xlink="http://www.w3.org/1999/xlink" x="0px"
	 y="0px" viewBox="0 0 204.12 53.01" style="enable-background:new 0 0 204.12 53.01;" xml:space="preserve">
<style type="text/css">
	.st0{fill:#174593;}
	.st1{fill:#FFFFFF;}
</style>
<g>
	<path class="st0" d="M30.62,34.6h0.15c0.29,0.39,0.67,0.79,1.13,1.2c0.46,0.41,1.01,0.79,1.67,1.15c0.65,0.36,1.41,0.65,2.26,0.88
		c0.85,0.23,1.83,0.34,2.95,0.34c1.67,0,3.21-0.32,4.62-0.96C44.79,36.58,46,35.71,47,34.6c1-1.11,1.78-2.42,2.33-3.93
		c0.56-1.51,0.83-3.13,0.83-4.86c0-1.73-0.26-3.36-0.79-4.86c-0.52-1.5-1.29-2.81-2.31-3.93c-1.02-1.11-2.24-1.99-3.68-2.63
		c-1.44-0.64-3.06-0.96-4.86-0.96c-1.67,0-3.22,0.33-4.67,0.98c-1.44,0.66-2.59,1.7-3.44,3.14h-0.1v-3.54h-5.6v33.03h-5.57v-0.01
		h-1.07c-3.79,0-5.32-1.75-5.32-6.04v-7.92c0-3.87-1.93-5.88-5.88-6.28v-0.64c3.95-0.4,5.88-2.42,5.88-6.28v-7.9
		c0-4.3,1.53-6.04,5.32-6.04h1.07V2.15h-1.48c-6.34,0-9.32,2.98-9.32,9.24v6.82c0,4.3-1.48,5.72-5.91,5.72v5.1
		c4.43,0,5.91,1.42,5.91,5.72v6.85c0,6.26,2.98,9.24,9.32,9.24h1.48v0h107.75v-3.78H30.62V34.6z M30.89,23.16
		c0.31-0.85,0.77-1.6,1.38-2.26c0.61-0.65,1.33-1.18,2.19-1.57c0.85-0.39,1.82-0.59,2.9-0.59s2.05,0.2,2.9,0.59
		c0.85,0.39,1.58,0.92,2.19,1.57c0.61,0.66,1.06,1.41,1.38,2.26c0.31,0.85,0.47,1.74,0.47,2.65c0,0.92-0.16,1.8-0.47,2.65
		c-0.31,0.85-0.77,1.6-1.38,2.26c-0.61,0.66-1.33,1.18-2.19,1.57c-0.85,0.39-1.82,0.59-2.9,0.59s-2.05-0.2-2.9-0.59
		c-0.85-0.39-1.58-0.92-2.19-1.57c-0.61-0.65-1.06-1.41-1.38-2.26c-0.31-0.85-0.47-1.73-0.47-2.65
		C30.42,24.89,30.58,24.01,30.89,23.16z"/>
	<path class="st0" d="M91.7,24.97c0-0.33,0.07-0.82,0.22-1.47c0.15-0.65,0.44-1.31,0.88-1.96s1.08-1.24,1.92-1.74
		c0.83-0.51,1.94-0.76,3.31-0.76c0.46,0,0.92,0.04,1.4,0.12c0.47,0.08,0.96,0.19,1.45,0.32v-5.7c-0.36-0.1-0.71-0.18-1.06-0.25
		c-0.34-0.07-0.7-0.1-1.06-0.1c-1.57,0-2.96,0.38-4.17,1.13c-1.21,0.75-2.14,1.82-2.8,3.19h-0.1v-3.73h-5.89v23.57h5.89V24.97z"/>
	<path class="st0" d="M126.54,19.82c-0.18-0.79-0.48-1.56-0.88-2.33c-0.41-0.77-0.99-1.45-1.74-2.04c-0.75-0.59-1.7-1.07-2.85-1.45
		c-1.15-0.38-2.55-0.57-4.22-0.57c-1.87,0-3.67,0.29-5.43,0.88c-1.75,0.59-3.28,1.56-4.59,2.9l3.09,3.09
		c0.79-0.75,1.72-1.35,2.8-1.79c1.08-0.44,2.24-0.66,3.49-0.66c1.57,0,2.86,0.37,3.88,1.1c1.01,0.74,1.52,1.84,1.52,3.31v0.64h-1.47
		c-0.98,0-2.03,0.03-3.14,0.07c-1.11,0.05-2.22,0.16-3.31,0.34c-1.1,0.18-2.15,0.45-3.17,0.81c-1.02,0.36-1.91,0.84-2.68,1.45
		c-0.77,0.61-1.38,1.36-1.84,2.26c-0.46,0.9-0.69,1.99-0.69,3.26c0,1.18,0.25,2.21,0.74,3.09c0.49,0.88,1.14,1.62,1.94,2.21
		c0.8,0.59,1.72,1.03,2.75,1.33s2.09,0.44,3.17,0.44c1.57,0,3.01-0.3,4.32-0.91c1.31-0.6,2.39-1.58,3.24-2.92h0.15v3.24h5.3V24.04
		c0-0.56-0.02-1.2-0.05-1.94C126.83,21.36,126.72,20.6,126.54,19.82z M121.26,28.36c0,1.67-0.48,2.99-1.45,3.95
		c-0.97,0.97-2.46,1.45-4.49,1.45c-0.49,0-0.98-0.06-1.47-0.17c-0.49-0.11-0.93-0.3-1.33-0.56c-0.39-0.26-0.71-0.58-0.96-0.96
		c-0.25-0.38-0.37-0.84-0.37-1.4c0-0.85,0.31-1.51,0.93-1.99c0.62-0.47,1.38-0.83,2.28-1.08c0.9-0.25,1.86-0.4,2.87-0.47
		c1.01-0.07,1.93-0.1,2.75-0.1h1.23V28.36z"/>
	<path class="st0" d="M148.17,24.9c-0.95-0.51-1.97-0.88-3.07-1.13c-1.1-0.25-2.12-0.48-3.07-0.71c-0.95-0.23-1.74-0.51-2.36-0.83
		c-0.62-0.33-0.93-0.85-0.93-1.57c0-0.88,0.38-1.52,1.13-1.92c0.75-0.39,1.52-0.59,2.31-0.59c1.93,0,3.47,0.8,4.62,2.41l3.93-3.54
		c-0.95-1.31-2.19-2.23-3.73-2.77c-1.54-0.54-3.09-0.81-4.66-0.81c-1.18,0-2.34,0.15-3.49,0.44c-1.15,0.29-2.16,0.75-3.04,1.38
		s-1.6,1.42-2.14,2.38c-0.54,0.97-0.81,2.1-0.81,3.41c0,1.51,0.31,2.68,0.93,3.54c0.62,0.85,1.41,1.51,2.36,1.99
		c0.95,0.48,1.97,0.82,3.07,1.03c1.1,0.21,2.12,0.44,3.07,0.69c0.95,0.25,1.73,0.56,2.36,0.96c0.62,0.39,0.93,1,0.93,1.82
		c0,0.46-0.12,0.86-0.37,1.2c-0.25,0.34-0.56,0.63-0.96,0.86c-0.39,0.23-0.82,0.39-1.28,0.49c-0.46,0.1-0.9,0.15-1.33,0.15
		c-1.24,0-2.3-0.27-3.17-0.81c-0.87-0.54-1.68-1.24-2.43-2.09l-3.93,3.68c1.21,1.38,2.59,2.32,4.12,2.85
		c1.54,0.52,3.22,0.79,5.06,0.79c1.21,0,2.42-0.13,3.63-0.39c1.21-0.26,2.3-0.69,3.27-1.28c0.96-0.59,1.75-1.37,2.36-2.33
		c0.61-0.97,0.91-2.15,0.91-3.56c0-1.54-0.31-2.75-0.93-3.63C149.9,26.1,149.12,25.41,148.17,24.9z"/>
	<path class="st0" d="M160.54,34.79c1.15,1.08,2.5,1.92,4.08,2.5c1.57,0.59,3.24,0.88,5.01,0.88c1.87,0,3.65-0.36,5.35-1.08
		c1.7-0.72,3.24-1.93,4.62-3.63l-4.22-3.19c-0.75,0.92-1.63,1.68-2.63,2.28c-1,0.61-2.23,0.91-3.71,0.91
		c-1.67,0-3.09-0.49-4.27-1.47c-1.18-0.98-1.87-2.36-2.06-4.12h17.97v-1.62c0-2.06-0.27-3.89-0.81-5.48c-0.54-1.59-1.29-2.92-2.26-4
		c-0.97-1.08-2.13-1.91-3.49-2.48c-1.36-0.57-2.86-0.86-4.49-0.86c-1.77,0-3.44,0.29-5.01,0.88c-1.57,0.59-2.93,1.42-4.08,2.5
		c-1.15,1.08-2.05,2.38-2.73,3.9c-0.67,1.52-1.01,3.22-1.01,5.08s0.33,3.56,1.01,5.08C158.49,32.41,159.4,33.71,160.54,34.79z
		 M164.59,19.37c1.03-1.01,2.43-1.52,4.2-1.52c1.87,0,3.32,0.5,4.37,1.5c1.05,1,1.59,2.37,1.62,4.1H162.7
		C162.93,21.75,163.56,20.39,164.59,19.37z"/>
	<path class="st0" d="M195.4,18.21v-6.82c0-6.26-2.98-9.24-9.32-9.24h-1.48v3.79h1.07c3.79,0,5.32,1.75,5.32,6.04v7.9
		c0,3.87,1.93,5.88,5.88,6.28v0.64c-3.95,0.4-5.88,2.42-5.88,6.28v7.92c0,4.3-1.53,6.04-5.32,6.04h-1.07v0.01h-27.79v3.78h27.79v0
		h1.48c6.34,0,9.32-2.98,9.32-9.24v-6.85c0-4.3,1.48-5.72,5.91-5.72v-5.1C196.87,23.93,195.4,22.5,195.4,18.21z"/>
	<rect x="132.11" y="2.15" class="st0" width="19.35" height="3.78"/>
	<path class="st0" d="M62.54,24.73c0-0.79,0.1-1.54,0.29-2.26c0.2-0.72,0.52-1.36,0.96-1.92c0.44-0.56,1-1,1.67-1.33
		c0.67-0.33,1.5-0.49,2.48-0.49c1.01,0,1.82,0.24,2.41,0.71c0.59,0.47,1.02,1.06,1.3,1.77c0.28,0.7,0.45,1.46,0.52,2.26
		c0.07,0.8,0.1,1.53,0.1,2.18v11.93h5.89V22.71c0-1.21-0.15-2.37-0.44-3.49c-0.29-1.11-0.79-2.09-1.47-2.95s-1.58-1.54-2.68-2.06
		c-1.1-0.52-2.43-0.79-4-0.79c-1.83,0-3.33,0.4-4.49,1.2c-1.16,0.8-1.97,1.69-2.43,2.68h-0.1V2.15h-5.89v35.44h5.89V24.73z"/>
</g>
</svg>
